<mxfile host="65bd71144e" pages="5">
    <diagram id="hA16oOmxjcb0NqXpZcEl" name="UseCase">
        <mxGraphModel dx="1088" dy="1775" grid="1" gridSize="10" guides="1" tooltips="1" connect="1" arrows="1" fold="1" page="1" pageScale="1" pageWidth="1169" pageHeight="827" math="0" shadow="0">
            <root>
                <mxCell id="0"/>
                <mxCell id="1" parent="0"/>
                <mxCell id="2" style="edgeStyle=none;html=1;entryX=0;entryY=0.5;entryDx=0;entryDy=0;endArrow=none;endFill=0;fontColor=#191C1C;strokeColor=#6F7978;" parent="1" source="yfQNlfp69jvisUfv3rvj-1" target="yfQNlfp69jvisUfv3rvj-3" edge="1">
                    <mxGeometry relative="1" as="geometry"/>
                </mxCell>
                <mxCell id="yfQNlfp69jvisUfv3rvj-1" value="Utente non registrato" style="shape=umlActor;verticalLabelPosition=bottom;verticalAlign=top;html=1;fillColor=#FFCCCC;fontFamily=Fira Sans;fontSource=https%3A%2F%2Ffonts.googleapis.com%2Fcss%3Ffamily%3DFira%2BSans;" parent="1" vertex="1">
                    <mxGeometry x="275" y="58" width="30" height="60" as="geometry"/>
                </mxCell>
                <mxCell id="R7bt2Uf316R3_vRWJTQQ-4" style="edgeStyle=none;html=1;entryX=0;entryY=0.5;entryDx=0;entryDy=0;fontFamily=Roboto;fontSource=https%3A%2F%2Ffonts.googleapis.com%2Fcss%3Ffamily%3DRoboto;endArrow=none;endFill=0;" parent="1" target="yfQNlfp69jvisUfv3rvj-4" edge="1">
                    <mxGeometry relative="1" as="geometry">
                        <Array as="points">
                            <mxPoint x="280" y="205"/>
                        </Array>
                    </mxGeometry>
                </mxCell>
                <mxCell id="R7bt2Uf316R3_vRWJTQQ-7" style="edgeStyle=orthogonalEdgeStyle;html=1;entryX=0;entryY=1;entryDx=0;entryDy=0;fontFamily=Roboto;fontSource=https%3A%2F%2Ffonts.googleapis.com%2Fcss%3Ffamily%3DRoboto;endArrow=none;endFill=0;fontColor=#191C1C;strokeColor=#6F7978;" parent="1" target="yfQNlfp69jvisUfv3rvj-4" edge="1">
                    <mxGeometry relative="1" as="geometry">
                        <mxPoint x="305" y="583" as="sourcePoint"/>
                        <Array as="points">
                            <mxPoint x="405" y="583"/>
                            <mxPoint x="405" y="433"/>
                        </Array>
                    </mxGeometry>
                </mxCell>
                <mxCell id="R7bt2Uf316R3_vRWJTQQ-30" style="edgeStyle=orthogonalEdgeStyle;html=1;entryX=0;entryY=0;entryDx=0;entryDy=42;entryPerimeter=0;fontFamily=Roboto;fontSource=https%3A%2F%2Ffonts.googleapis.com%2Fcss%3Ffamily%3DRoboto;endArrow=none;endFill=0;fontColor=#191C1C;strokeColor=#6F7978;" parent="1" source="yfQNlfp69jvisUfv3rvj-2" target="jX1HX_BmqKmZ0lMKoBQJ-6" edge="1">
                    <mxGeometry relative="1" as="geometry">
                        <Array as="points">
                            <mxPoint x="405" y="583"/>
                            <mxPoint x="405" y="505"/>
                        </Array>
                    </mxGeometry>
                </mxCell>
                <mxCell id="R7bt2Uf316R3_vRWJTQQ-31" style="edgeStyle=orthogonalEdgeStyle;html=1;fontFamily=Roboto;fontSource=https%3A%2F%2Ffonts.googleapis.com%2Fcss%3Ffamily%3DRoboto;endArrow=none;endFill=0;exitX=0;exitY=0;exitDx=0;exitDy=42;exitPerimeter=0;fontColor=#191C1C;strokeColor=#6F7978;" parent="1" source="yfQNlfp69jvisUfv3rvj-8" edge="1">
                    <mxGeometry relative="1" as="geometry">
                        <Array as="points">
                            <mxPoint x="505" y="583"/>
                            <mxPoint x="385" y="583"/>
                        </Array>
                        <mxPoint x="475" y="582.9200000000001" as="sourcePoint"/>
                        <mxPoint x="495.02" y="583.09" as="targetPoint"/>
                    </mxGeometry>
                </mxCell>
                <mxCell id="R7bt2Uf316R3_vRWJTQQ-32" style="edgeStyle=orthogonalEdgeStyle;html=1;entryX=0;entryY=0;entryDx=0;entryDy=42;entryPerimeter=0;fontFamily=Roboto;fontSource=https%3A%2F%2Ffonts.googleapis.com%2Fcss%3Ffamily%3DRoboto;endArrow=none;endFill=0;fontColor=#191C1C;strokeColor=#6F7978;" parent="1" source="yfQNlfp69jvisUfv3rvj-2" target="ggv2WuR-s7nQbWTxuWOC-1" edge="1">
                    <mxGeometry relative="1" as="geometry"/>
                </mxCell>
                <mxCell id="R7bt2Uf316R3_vRWJTQQ-33" style="edgeStyle=orthogonalEdgeStyle;html=1;entryX=0;entryY=0;entryDx=0;entryDy=42;entryPerimeter=0;fontFamily=Roboto;fontSource=https%3A%2F%2Ffonts.googleapis.com%2Fcss%3Ffamily%3DRoboto;endArrow=none;endFill=0;fontColor=#191C1C;strokeColor=#6F7978;" parent="1" source="yfQNlfp69jvisUfv3rvj-2" target="YfjQJKxad_IzTe695nNx-1" edge="1">
                    <mxGeometry relative="1" as="geometry">
                        <Array as="points">
                            <mxPoint x="405" y="583"/>
                            <mxPoint x="405" y="745"/>
                        </Array>
                    </mxGeometry>
                </mxCell>
                <mxCell id="yfQNlfp69jvisUfv3rvj-2" value="Utente registrato" style="shape=umlActor;verticalLabelPosition=bottom;verticalAlign=top;html=1;fillColor=#FFCCCC;fontFamily=Fira Sans;fontSource=https%3A%2F%2Ffonts.googleapis.com%2Fcss%3Ffamily%3DFira%2BSans;" parent="1" vertex="1">
                    <mxGeometry x="275" y="553" width="30" height="60" as="geometry"/>
                </mxCell>
                <mxCell id="yfQNlfp69jvisUfv3rvj-3" value="Effettua registrazione&lt;span style=&quot;color: rgba(0, 0, 0, 0); font-size: 0px;&quot;&gt;%3CmxGraphModel%3E%3Croot%3E%3CmxCell%20id%3D%220%22%2F%3E%3CmxCell%20id%3D%221%22%20parent%3D%220%22%2F%3E%3CmxCell%20id%3D%222%22%20value%3D%22Utente%20non%20registrato%22%20style%3D%22shape%3DumlActor%3BverticalLabelPosition%3Dbottom%3BverticalAlign%3Dtop%3Bhtml%3D1%3B%22%20vertex%3D%221%22%20parent%3D%221%22%3E%3CmxGeometry%20x%3D%2260%22%20y%3D%22260%22%20width%3D%2230%22%20height%3D%2260%22%20as%3D%22geometry%22%2F%3E%3C%2FmxCell%3E%3C%2Froot%3E%3C%2FmxGraphModel%3E&lt;/span&gt;" style="ellipse;whiteSpace=wrap;html=1;strokeColor=#006A6A;fillColor=#CCE8E7;fontFamily=Fira Sans;fontSource=https%3A%2F%2Ffonts.googleapis.com%2Fcss%3Ffamily%3DFira%2BSans;" parent="1" vertex="1">
                    <mxGeometry x="505" y="53" width="170" height="70" as="geometry"/>
                </mxCell>
                <mxCell id="yfQNlfp69jvisUfv3rvj-4" value="Effettua accesso" style="ellipse;whiteSpace=wrap;html=1;fillColor=#CCE8E7;strokeColor=#006A6A;fontFamily=Fira Sans;fontSource=https%3A%2F%2Ffonts.googleapis.com%2Fcss%3Ffamily%3DFira%2BSans;" parent="1" vertex="1">
                    <mxGeometry x="505" y="373" width="170" height="70" as="geometry"/>
                </mxCell>
                <mxCell id="R7bt2Uf316R3_vRWJTQQ-14" style="edgeStyle=orthogonalEdgeStyle;html=1;entryX=1;entryY=0.5;entryDx=0;entryDy=0;fontFamily=Roboto;fontSource=https%3A%2F%2Ffonts.googleapis.com%2Fcss%3Ffamily%3DRoboto;endArrow=none;endFill=0;fontColor=#191C1C;strokeColor=#6F7978;" parent="1" source="yfQNlfp69jvisUfv3rvj-5" target="yfQNlfp69jvisUfv3rvj-3" edge="1">
                    <mxGeometry relative="1" as="geometry"/>
                </mxCell>
                <mxCell id="R7bt2Uf316R3_vRWJTQQ-15" style="edgeStyle=orthogonalEdgeStyle;html=1;entryX=1;entryY=0.5;entryDx=0;entryDy=0;fontFamily=Roboto;fontSource=https%3A%2F%2Ffonts.googleapis.com%2Fcss%3Ffamily%3DRoboto;endArrow=none;endFill=0;fontColor=#191C1C;strokeColor=#6F7978;exitX=0.5;exitY=0.5;exitDx=0;exitDy=0;exitPerimeter=0;" parent="1" source="yfQNlfp69jvisUfv3rvj-5" target="yfQNlfp69jvisUfv3rvj-4" edge="1">
                    <mxGeometry relative="1" as="geometry">
                        <mxPoint x="865" y="363" as="sourcePoint"/>
                    </mxGeometry>
                </mxCell>
                <mxCell id="yfQNlfp69jvisUfv3rvj-5" value="Provider di autenticazione" style="shape=umlActor;verticalLabelPosition=bottom;verticalAlign=top;html=1;fillColor=#FFCCCC;fontFamily=Fira Sans;fontSource=https%3A%2F%2Ffonts.googleapis.com%2Fcss%3Ffamily%3DFira%2BSans;" parent="1" vertex="1">
                    <mxGeometry x="865" y="193" width="30" height="60" as="geometry"/>
                </mxCell>
                <mxCell id="R7bt2Uf316R3_vRWJTQQ-24" style="edgeStyle=orthogonalEdgeStyle;html=1;entryX=0;entryY=0;entryDx=170;entryDy=42;entryPerimeter=0;fontFamily=Roboto;fontSource=https%3A%2F%2Ffonts.googleapis.com%2Fcss%3Ffamily%3DRoboto;endArrow=none;endFill=0;fontColor=#191C1C;strokeColor=#6F7978;" parent="1" source="yfQNlfp69jvisUfv3rvj-6" target="jX1HX_BmqKmZ0lMKoBQJ-6" edge="1">
                    <mxGeometry relative="1" as="geometry">
                        <Array as="points">
                            <mxPoint x="845" y="505"/>
                            <mxPoint x="845" y="505"/>
                        </Array>
                    </mxGeometry>
                </mxCell>
                <mxCell id="yfQNlfp69jvisUfv3rvj-6" value="Google Maps" style="shape=umlActor;verticalLabelPosition=bottom;verticalAlign=top;html=1;fillColor=#FFCCCC;fontFamily=Fira Sans;fontSource=https%3A%2F%2Ffonts.googleapis.com%2Fcss%3Ffamily%3DFira%2BSans;" parent="1" vertex="1">
                    <mxGeometry x="865" y="473" width="30" height="60" as="geometry"/>
                </mxCell>
                <mxCell id="yfQNlfp69jvisUfv3rvj-8" value="Interazione con un post" style="shape=folder;fontStyle=1;spacingTop=10;tabWidth=40;tabHeight=14;tabPosition=left;html=1;fillColor=#B3C8E8;strokeColor=#81A1C1;fontFamily=Fira Sans;fontSource=https%3A%2F%2Ffonts.googleapis.com%2Fcss%3Ffamily%3DFira%2BSans;" parent="1" vertex="1">
                    <mxGeometry x="505" y="543" width="170" height="70" as="geometry"/>
                </mxCell>
                <mxCell id="YfjQJKxad_IzTe695nNx-1" value="Gestione messaggi" style="shape=folder;fontStyle=1;spacingTop=10;tabWidth=40;tabHeight=14;tabPosition=left;html=1;fillColor=#B3C8E8;strokeColor=#81A1C1;fontFamily=Fira Sans;fontSource=https%3A%2F%2Ffonts.googleapis.com%2Fcss%3Ffamily%3DFira%2BSans;" parent="1" vertex="1">
                    <mxGeometry x="505" y="703" width="170" height="70" as="geometry"/>
                </mxCell>
                <mxCell id="jX1HX_BmqKmZ0lMKoBQJ-6" value="Interazione con un&lt;br&gt;itinerario" style="shape=folder;fontStyle=1;spacingTop=10;tabWidth=40;tabHeight=14;tabPosition=left;html=1;fillColor=#B3C8E8;strokeColor=#81A1C1;fontFamily=Fira Sans;fontSource=https%3A%2F%2Ffonts.googleapis.com%2Fcss%3Ffamily%3DFira%2BSans;" parent="1" vertex="1">
                    <mxGeometry x="505" y="463" width="170" height="70" as="geometry"/>
                </mxCell>
                <mxCell id="ggv2WuR-s7nQbWTxuWOC-1" value="Gestione profilo" style="shape=folder;fontStyle=1;spacingTop=10;tabWidth=40;tabHeight=14;tabPosition=left;html=1;fillColor=#B3C8E8;strokeColor=#81A1C1;fontFamily=Fira Sans;fontSource=https%3A%2F%2Ffonts.googleapis.com%2Fcss%3Ffamily%3DFira%2BSans;" parent="1" vertex="1">
                    <mxGeometry x="505" y="623" width="170" height="70" as="geometry"/>
                </mxCell>
                <mxCell id="1iZ4ESmycFL-4nwnKJNf-3" style="edgeStyle=orthogonalEdgeStyle;html=1;entryX=0;entryY=0;entryDx=0;entryDy=0;strokeColor=#6F7978;endArrow=none;endFill=0;" parent="1" target="yfQNlfp69jvisUfv3rvj-4" edge="1">
                    <mxGeometry relative="1" as="geometry">
                        <mxPoint x="305" y="288" as="sourcePoint"/>
                        <Array as="points">
                            <mxPoint x="405" y="288"/>
                            <mxPoint x="405" y="383"/>
                        </Array>
                    </mxGeometry>
                </mxCell>
                <mxCell id="1iZ4ESmycFL-4nwnKJNf-4" style="edgeStyle=orthogonalEdgeStyle;html=1;entryX=0;entryY=0.5;entryDx=0;entryDy=0;endArrow=none;endFill=0;strokeColor=#6F7978;" parent="1" source="wZ_p2HvpNCdP5GBpue21-2" target="wZ_p2HvpNCdP5GBpue21-4" edge="1">
                    <mxGeometry relative="1" as="geometry"/>
                </mxCell>
                <mxCell id="1iZ4ESmycFL-4nwnKJNf-5" style="edgeStyle=orthogonalEdgeStyle;html=1;entryX=0;entryY=0.5;entryDx=0;entryDy=0;endArrow=none;endFill=0;strokeColor=#6F7978;" parent="1" source="wZ_p2HvpNCdP5GBpue21-2" target="wZ_p2HvpNCdP5GBpue21-3" edge="1">
                    <mxGeometry relative="1" as="geometry"/>
                </mxCell>
                <mxCell id="wZ_p2HvpNCdP5GBpue21-2" value="Amministratore" style="shape=umlActor;verticalLabelPosition=bottom;verticalAlign=top;html=1;fillColor=#FFCCCC;fontFamily=Fira Sans;fontSource=https%3A%2F%2Ffonts.googleapis.com%2Fcss%3Ffamily%3DFira%2BSans;" parent="1" vertex="1">
                    <mxGeometry x="275" y="258" width="30" height="60" as="geometry"/>
                </mxCell>
                <mxCell id="wZ_p2HvpNCdP5GBpue21-3" value="Rimuove itinerario" style="ellipse;whiteSpace=wrap;html=1;strokeColor=#006A6A;fillColor=#CCE8E7;fontFamily=Fira Sans;fontSource=https%3A%2F%2Ffonts.googleapis.com%2Fcss%3Ffamily%3DFira%2BSans;" parent="1" vertex="1">
                    <mxGeometry x="505" y="173" width="170" height="70" as="geometry"/>
                </mxCell>
                <mxCell id="wZ_p2HvpNCdP5GBpue21-4" value="Modifica itinerario" style="ellipse;whiteSpace=wrap;html=1;strokeColor=#006A6A;fillColor=#CCE8E7;fontFamily=Fira Sans;fontSource=https%3A%2F%2Ffonts.googleapis.com%2Fcss%3Ffamily%3DFira%2BSans;" parent="1" vertex="1">
                    <mxGeometry x="505" y="253" width="170" height="70" as="geometry"/>
                </mxCell>
            </root>
        </mxGraphModel>
    </diagram>
    <diagram id="ynwV29AEDQFCAF0MuXqC" name="Gestione messaggi">
        <mxGraphModel dx="1624" dy="710" grid="1" gridSize="10" guides="1" tooltips="1" connect="1" arrows="1" fold="1" page="1" pageScale="1" pageWidth="850" pageHeight="1100" math="0" shadow="0">
            <root>
                <mxCell id="RA_Lw5pRIug5276kbM9S-0"/>
                <mxCell id="RA_Lw5pRIug5276kbM9S-1" parent="RA_Lw5pRIug5276kbM9S-0"/>
                <mxCell id="XJwVIXTmzipemH6ciXKP-1" value="Gestione messaggi" style="shape=folder;fontStyle=1;spacingTop=-413;tabWidth=125;tabHeight=30;tabPosition=left;html=1;fillColor=#B3C8E8;strokeColor=#81A1C1;spacingRight=120;fontFamily=Fira Sans;fontSource=https%3A%2F%2Ffonts.googleapis.com%2Fcss%3Ffamily%3DFira%2BSans;" parent="RA_Lw5pRIug5276kbM9S-1" vertex="1">
                    <mxGeometry x="305" y="440" width="240" height="440" as="geometry"/>
                </mxCell>
                <mxCell id="XJwVIXTmzipemH6ciXKP-2" value="Invia messaggio privato" style="ellipse;whiteSpace=wrap;html=1;fillColor=#CCE8E7;strokeColor=#006A6A;fontFamily=Fira Sans;fontSource=https%3A%2F%2Ffonts.googleapis.com%2Fcss%3Ffamily%3DFira%2BSans;" parent="RA_Lw5pRIug5276kbM9S-1" vertex="1">
                    <mxGeometry x="340" y="480" width="170" height="70" as="geometry"/>
                </mxCell>
                <mxCell id="XJwVIXTmzipemH6ciXKP-3" value="Riceve messaggio privato" style="ellipse;whiteSpace=wrap;html=1;fillColor=#CCE8E7;strokeColor=#006A6A;fontFamily=Fira Sans;fontSource=https%3A%2F%2Ffonts.googleapis.com%2Fcss%3Ffamily%3DFira%2BSans;" parent="RA_Lw5pRIug5276kbM9S-1" vertex="1">
                    <mxGeometry x="340" y="560" width="170" height="70" as="geometry"/>
                </mxCell>
                <mxCell id="XJwVIXTmzipemH6ciXKP-4" value="Visualizza storico conversazioni" style="ellipse;whiteSpace=wrap;html=1;fillColor=#CCE8E7;strokeColor=#006A6A;fontFamily=Fira Sans;fontSource=https%3A%2F%2Ffonts.googleapis.com%2Fcss%3Ffamily%3DFira%2BSans;" parent="RA_Lw5pRIug5276kbM9S-1" vertex="1">
                    <mxGeometry x="340" y="640" width="170" height="70" as="geometry"/>
                </mxCell>
                <mxCell id="XJwVIXTmzipemH6ciXKP-5" value="Ricerca destinatario messaggio" style="ellipse;whiteSpace=wrap;html=1;fillColor=#CCE8E7;strokeColor=#006A6A;fontFamily=Fira Sans;fontSource=https%3A%2F%2Ffonts.googleapis.com%2Fcss%3Ffamily%3DFira%2BSans;" parent="RA_Lw5pRIug5276kbM9S-1" vertex="1">
                    <mxGeometry x="340" y="800" width="170" height="70" as="geometry"/>
                </mxCell>
                <mxCell id="XJwVIXTmzipemH6ciXKP-6" value="Elimina conversazione" style="ellipse;whiteSpace=wrap;html=1;fillColor=#CCE8E7;strokeColor=#006A6A;fontFamily=Fira Sans;fontSource=https%3A%2F%2Ffonts.googleapis.com%2Fcss%3Ffamily%3DFira%2BSans;" parent="RA_Lw5pRIug5276kbM9S-1" vertex="1">
                    <mxGeometry x="340" y="720" width="170" height="70" as="geometry"/>
                </mxCell>
                <mxCell id="PV0Y0JGR-1BFf_9Rntem-1" style="edgeStyle=orthogonalEdgeStyle;html=1;entryX=0;entryY=0.5;entryDx=0;entryDy=0;fontFamily=Roboto;fontSource=https%3A%2F%2Ffonts.googleapis.com%2Fcss%3Ffamily%3DRoboto;endArrow=none;endFill=0;strokeColor=#6F7978;" parent="RA_Lw5pRIug5276kbM9S-1" source="PV0Y0JGR-1BFf_9Rntem-0" target="XJwVIXTmzipemH6ciXKP-2" edge="1">
                    <mxGeometry relative="1" as="geometry"/>
                </mxCell>
                <mxCell id="PV0Y0JGR-1BFf_9Rntem-2" style="edgeStyle=orthogonalEdgeStyle;html=1;entryX=0;entryY=0.5;entryDx=0;entryDy=0;fontFamily=Roboto;fontSource=https%3A%2F%2Ffonts.googleapis.com%2Fcss%3Ffamily%3DRoboto;endArrow=none;endFill=0;strokeColor=#6F7978;" parent="RA_Lw5pRIug5276kbM9S-1" source="PV0Y0JGR-1BFf_9Rntem-0" target="XJwVIXTmzipemH6ciXKP-3" edge="1">
                    <mxGeometry relative="1" as="geometry"/>
                </mxCell>
                <mxCell id="PV0Y0JGR-1BFf_9Rntem-3" style="edgeStyle=orthogonalEdgeStyle;html=1;fontFamily=Roboto;fontSource=https%3A%2F%2Ffonts.googleapis.com%2Fcss%3Ffamily%3DRoboto;endArrow=none;endFill=0;strokeColor=#6F7978;" parent="RA_Lw5pRIug5276kbM9S-1" source="PV0Y0JGR-1BFf_9Rntem-0" target="XJwVIXTmzipemH6ciXKP-4" edge="1">
                    <mxGeometry relative="1" as="geometry"/>
                </mxCell>
                <mxCell id="PV0Y0JGR-1BFf_9Rntem-4" style="edgeStyle=orthogonalEdgeStyle;html=1;entryX=0;entryY=0.5;entryDx=0;entryDy=0;fontFamily=Roboto;fontSource=https%3A%2F%2Ffonts.googleapis.com%2Fcss%3Ffamily%3DRoboto;endArrow=none;endFill=0;strokeColor=#6F7978;" parent="RA_Lw5pRIug5276kbM9S-1" source="PV0Y0JGR-1BFf_9Rntem-0" target="XJwVIXTmzipemH6ciXKP-6" edge="1">
                    <mxGeometry relative="1" as="geometry"/>
                </mxCell>
                <mxCell id="PV0Y0JGR-1BFf_9Rntem-5" style="edgeStyle=orthogonalEdgeStyle;html=1;entryX=0;entryY=0.5;entryDx=0;entryDy=0;fontFamily=Roboto;fontSource=https%3A%2F%2Ffonts.googleapis.com%2Fcss%3Ffamily%3DRoboto;endArrow=none;endFill=0;strokeColor=#6F7978;" parent="RA_Lw5pRIug5276kbM9S-1" source="PV0Y0JGR-1BFf_9Rntem-0" target="XJwVIXTmzipemH6ciXKP-5" edge="1">
                    <mxGeometry relative="1" as="geometry"/>
                </mxCell>
                <mxCell id="PV0Y0JGR-1BFf_9Rntem-0" value="Utente registrato" style="shape=umlActor;verticalLabelPosition=bottom;verticalAlign=top;html=1;fillColor=#FFCCCC;fontFamily=Fira Sans;fontSource=https%3A%2F%2Ffonts.googleapis.com%2Fcss%3Ffamily%3DFira%2BSans;" parent="RA_Lw5pRIug5276kbM9S-1" vertex="1">
                    <mxGeometry x="130" y="645" width="30" height="60" as="geometry"/>
                </mxCell>
            </root>
        </mxGraphModel>
    </diagram>
    <diagram id="6rKbAm856umPjdzIHia5" name="Interazione con un itinerario">
        <mxGraphModel dx="986" dy="381" grid="1" gridSize="10" guides="1" tooltips="1" connect="1" arrows="1" fold="1" page="1" pageScale="1" pageWidth="850" pageHeight="1100" math="0" shadow="0">
            <root>
                <mxCell id="C338EUASnKbBIXxnKJzZ-0"/>
                <mxCell id="C338EUASnKbBIXxnKJzZ-1" parent="C338EUASnKbBIXxnKJzZ-0"/>
                <mxCell id="_ZwYKV5uUTKIE1pvgp_H-1" value="Interazione con un itinerario" style="shape=folder;fontStyle=1;spacingTop=-806;tabWidth=165;tabHeight=30;tabPosition=left;html=1;fillColor=#B3C8E8;strokeColor=#81A1C1;fontFamily=Fira Sans;fontSource=https%3A%2F%2Ffonts.googleapis.com%2Fcss%3Ffamily%3DFira%2BSans;spacingRight=80;" parent="C338EUASnKbBIXxnKJzZ-1" vertex="1">
                    <mxGeometry x="265" y="60" width="245" height="835" as="geometry"/>
                </mxCell>
                <mxCell id="_ZwYKV5uUTKIE1pvgp_H-2" value="Valuta itinerario" style="ellipse;whiteSpace=wrap;html=1;fillColor=#CCE8E7;strokeColor=#006A6A;fontFamily=Fira Sans;fontSource=https%3A%2F%2Ffonts.googleapis.com%2Fcss%3Ffamily%3DFira%2BSans;" parent="C338EUASnKbBIXxnKJzZ-1" vertex="1">
                    <mxGeometry x="302.5" y="575" width="170" height="70" as="geometry"/>
                </mxCell>
                <mxCell id="_ZwYKV5uUTKIE1pvgp_H-3" value="Aggiungi itinerario a compilation" style="ellipse;whiteSpace=wrap;html=1;fillColor=#CCE8E7;strokeColor=#006A6A;fontFamily=Fira Sans;fontSource=https%3A%2F%2Ffonts.googleapis.com%2Fcss%3Ffamily%3DFira%2BSans;" parent="C338EUASnKbBIXxnKJzZ-1" vertex="1">
                    <mxGeometry x="302.5" y="655" width="170" height="70" as="geometry"/>
                </mxCell>
                <mxCell id="_ZwYKV5uUTKIE1pvgp_H-4" value="Visualizza post associati" style="ellipse;whiteSpace=wrap;html=1;fillColor=#CCE8E7;strokeColor=#006A6A;fontFamily=Fira Sans;fontSource=https%3A%2F%2Ffonts.googleapis.com%2Fcss%3Ffamily%3DFira%2BSans;" parent="C338EUASnKbBIXxnKJzZ-1" vertex="1">
                    <mxGeometry x="302.5" y="495" width="170" height="70" as="geometry"/>
                </mxCell>
                <mxCell id="zOGHpzFeowUkN54CgMtl-0" value="Visualizza informazioni itinerario" style="ellipse;whiteSpace=wrap;html=1;fillColor=#CCE8E7;strokeColor=#006A6A;fontFamily=Fira Sans;fontSource=https%3A%2F%2Ffonts.googleapis.com%2Fcss%3Ffamily%3DFira%2BSans;" parent="C338EUASnKbBIXxnKJzZ-1" vertex="1">
                    <mxGeometry x="302.5" y="335" width="170" height="70" as="geometry"/>
                </mxCell>
                <mxCell id="zOGHpzFeowUkN54CgMtl-3" value="Segnala itinerario" style="ellipse;whiteSpace=wrap;html=1;fillColor=#CCE8E7;strokeColor=#006A6A;fontFamily=Fira Sans;fontSource=https%3A%2F%2Ffonts.googleapis.com%2Fcss%3Ffamily%3DFira%2BSans;" parent="C338EUASnKbBIXxnKJzZ-1" vertex="1">
                    <mxGeometry x="302.5" y="735" width="170" height="70" as="geometry"/>
                </mxCell>
                <mxCell id="zOGHpzFeowUkN54CgMtl-7" value="Visualizza itinerario su mappa" style="ellipse;whiteSpace=wrap;html=1;fillColor=#CCE8E7;strokeColor=#006A6A;fontFamily=Fira Sans;fontSource=https%3A%2F%2Ffonts.googleapis.com%2Fcss%3Ffamily%3DFira%2BSans;" parent="C338EUASnKbBIXxnKJzZ-1" vertex="1">
                    <mxGeometry x="302.5" y="415" width="170" height="70" as="geometry"/>
                </mxCell>
                <mxCell id="i6l3ypgMmZduuuR-hvQm-0" value="Elimina itinerario" style="ellipse;whiteSpace=wrap;html=1;fillColor=#CCE8E7;strokeColor=#006A6A;fontFamily=Fira Sans;fontSource=https%3A%2F%2Ffonts.googleapis.com%2Fcss%3Ffamily%3DFira%2BSans;" parent="C338EUASnKbBIXxnKJzZ-1" vertex="1">
                    <mxGeometry x="302.5" y="175" width="170" height="70" as="geometry"/>
                </mxCell>
                <mxCell id="xoWPv42Jw_Ec5Yf9Sz2_-0" value="Aggiungi itinerario" style="ellipse;whiteSpace=wrap;html=1;fillColor=#CCE8E7;strokeColor=#006A6A;fontFamily=Fira Sans;fontSource=https%3A%2F%2Ffonts.googleapis.com%2Fcss%3Ffamily%3DFira%2BSans;" parent="C338EUASnKbBIXxnKJzZ-1" vertex="1">
                    <mxGeometry x="302.5" y="95" width="170" height="70" as="geometry"/>
                </mxCell>
                <mxCell id="xoWPv42Jw_Ec5Yf9Sz2_-1" value="Ricerca itinerario" style="ellipse;whiteSpace=wrap;html=1;fillColor=#CCE8E7;fontFamily=Fira Sans;fontSource=https%3A%2F%2Ffonts.googleapis.com%2Fcss%3Ffamily%3DFira%2BSans;strokeColor=#006A6A;" parent="C338EUASnKbBIXxnKJzZ-1" vertex="1">
                    <mxGeometry x="302.5" y="255" width="170" height="70" as="geometry"/>
                </mxCell>
                <mxCell id="dY5G0MWIAElWPyhCaf7V-1" style="edgeStyle=orthogonalEdgeStyle;html=1;entryX=0;entryY=0.5;entryDx=0;entryDy=0;fontFamily=Roboto;fontSource=https%3A%2F%2Ffonts.googleapis.com%2Fcss%3Ffamily%3DRoboto;endArrow=none;endFill=0;strokeColor=#6F7978;" parent="C338EUASnKbBIXxnKJzZ-1" source="2fnAf-8mrznU_V3PLvRW-0" target="xoWPv42Jw_Ec5Yf9Sz2_-0" edge="1">
                    <mxGeometry relative="1" as="geometry"/>
                </mxCell>
                <mxCell id="dY5G0MWIAElWPyhCaf7V-2" style="edgeStyle=orthogonalEdgeStyle;html=1;entryX=0;entryY=0.5;entryDx=0;entryDy=0;fontFamily=Roboto;fontSource=https%3A%2F%2Ffonts.googleapis.com%2Fcss%3Ffamily%3DRoboto;endArrow=none;endFill=0;strokeColor=#6F7978;" parent="C338EUASnKbBIXxnKJzZ-1" source="2fnAf-8mrznU_V3PLvRW-0" target="i6l3ypgMmZduuuR-hvQm-0" edge="1">
                    <mxGeometry relative="1" as="geometry"/>
                </mxCell>
                <mxCell id="dY5G0MWIAElWPyhCaf7V-3" style="edgeStyle=orthogonalEdgeStyle;html=1;entryX=0;entryY=0.5;entryDx=0;entryDy=0;fontFamily=Roboto;fontSource=https%3A%2F%2Ffonts.googleapis.com%2Fcss%3Ffamily%3DRoboto;endArrow=none;endFill=0;strokeColor=#6F7978;" parent="C338EUASnKbBIXxnKJzZ-1" source="2fnAf-8mrznU_V3PLvRW-0" target="xoWPv42Jw_Ec5Yf9Sz2_-1" edge="1">
                    <mxGeometry relative="1" as="geometry"/>
                </mxCell>
                <mxCell id="dY5G0MWIAElWPyhCaf7V-4" style="edgeStyle=orthogonalEdgeStyle;html=1;entryX=0;entryY=0.5;entryDx=0;entryDy=0;fontFamily=Roboto;fontSource=https%3A%2F%2Ffonts.googleapis.com%2Fcss%3Ffamily%3DRoboto;endArrow=none;endFill=0;strokeColor=#6F7978;" parent="C338EUASnKbBIXxnKJzZ-1" source="2fnAf-8mrznU_V3PLvRW-0" target="zOGHpzFeowUkN54CgMtl-0" edge="1">
                    <mxGeometry relative="1" as="geometry"/>
                </mxCell>
                <mxCell id="dY5G0MWIAElWPyhCaf7V-5" style="edgeStyle=orthogonalEdgeStyle;html=1;entryX=0;entryY=0.5;entryDx=0;entryDy=0;fontFamily=Roboto;fontSource=https%3A%2F%2Ffonts.googleapis.com%2Fcss%3Ffamily%3DRoboto;endArrow=none;endFill=0;strokeColor=#6F7978;" parent="C338EUASnKbBIXxnKJzZ-1" source="2fnAf-8mrznU_V3PLvRW-0" target="zOGHpzFeowUkN54CgMtl-7" edge="1">
                    <mxGeometry relative="1" as="geometry"/>
                </mxCell>
                <mxCell id="dY5G0MWIAElWPyhCaf7V-6" style="edgeStyle=orthogonalEdgeStyle;html=1;entryX=0;entryY=0.5;entryDx=0;entryDy=0;fontFamily=Roboto;fontSource=https%3A%2F%2Ffonts.googleapis.com%2Fcss%3Ffamily%3DRoboto;endArrow=none;endFill=0;strokeColor=#6F7978;" parent="C338EUASnKbBIXxnKJzZ-1" source="2fnAf-8mrznU_V3PLvRW-0" target="_ZwYKV5uUTKIE1pvgp_H-4" edge="1">
                    <mxGeometry relative="1" as="geometry"/>
                </mxCell>
                <mxCell id="dY5G0MWIAElWPyhCaf7V-7" style="edgeStyle=orthogonalEdgeStyle;html=1;entryX=0;entryY=0.5;entryDx=0;entryDy=0;fontFamily=Roboto;fontSource=https%3A%2F%2Ffonts.googleapis.com%2Fcss%3Ffamily%3DRoboto;endArrow=none;endFill=0;strokeColor=#6F7978;" parent="C338EUASnKbBIXxnKJzZ-1" source="2fnAf-8mrznU_V3PLvRW-0" target="_ZwYKV5uUTKIE1pvgp_H-2" edge="1">
                    <mxGeometry relative="1" as="geometry"/>
                </mxCell>
                <mxCell id="dY5G0MWIAElWPyhCaf7V-8" style="edgeStyle=orthogonalEdgeStyle;html=1;entryX=0;entryY=0.5;entryDx=0;entryDy=0;fontFamily=Roboto;fontSource=https%3A%2F%2Ffonts.googleapis.com%2Fcss%3Ffamily%3DRoboto;endArrow=none;endFill=0;strokeColor=#6F7978;" parent="C338EUASnKbBIXxnKJzZ-1" source="2fnAf-8mrznU_V3PLvRW-0" target="_ZwYKV5uUTKIE1pvgp_H-3" edge="1">
                    <mxGeometry relative="1" as="geometry"/>
                </mxCell>
                <mxCell id="dY5G0MWIAElWPyhCaf7V-9" style="edgeStyle=orthogonalEdgeStyle;html=1;entryX=0;entryY=0.5;entryDx=0;entryDy=0;fontFamily=Roboto;fontSource=https%3A%2F%2Ffonts.googleapis.com%2Fcss%3Ffamily%3DRoboto;endArrow=none;endFill=0;strokeColor=#6F7978;" parent="C338EUASnKbBIXxnKJzZ-1" source="2fnAf-8mrznU_V3PLvRW-0" target="zOGHpzFeowUkN54CgMtl-3" edge="1">
                    <mxGeometry relative="1" as="geometry"/>
                </mxCell>
                <mxCell id="dY5G0MWIAElWPyhCaf7V-10" style="edgeStyle=orthogonalEdgeStyle;html=1;entryX=0;entryY=0.5;entryDx=0;entryDy=0;fontFamily=Roboto;fontSource=https%3A%2F%2Ffonts.googleapis.com%2Fcss%3Ffamily%3DRoboto;endArrow=none;endFill=0;strokeColor=#6F7978;" parent="C338EUASnKbBIXxnKJzZ-1" source="2fnAf-8mrznU_V3PLvRW-0" target="HZX-do62R3i_OTAh2DCt-0" edge="1">
                    <mxGeometry relative="1" as="geometry"/>
                </mxCell>
                <mxCell id="2fnAf-8mrznU_V3PLvRW-0" value="Utente registrato" style="shape=umlActor;verticalLabelPosition=bottom;verticalAlign=top;html=1;fillColor=#FFCCCC;fontFamily=Fira Sans;fontSource=https%3A%2F%2Ffonts.googleapis.com%2Fcss%3Ffamily%3DFira%2BSans;" parent="C338EUASnKbBIXxnKJzZ-1" vertex="1">
                    <mxGeometry x="80" y="420" width="30" height="60" as="geometry"/>
                </mxCell>
                <mxCell id="dY5G0MWIAElWPyhCaf7V-11" style="edgeStyle=orthogonalEdgeStyle;html=1;entryX=1;entryY=0.5;entryDx=0;entryDy=0;fontFamily=Roboto;fontSource=https%3A%2F%2Ffonts.googleapis.com%2Fcss%3Ffamily%3DRoboto;endArrow=none;endFill=0;strokeColor=#6F7978;" parent="C338EUASnKbBIXxnKJzZ-1" source="2fnAf-8mrznU_V3PLvRW-1" target="xoWPv42Jw_Ec5Yf9Sz2_-0" edge="1">
                    <mxGeometry relative="1" as="geometry"/>
                </mxCell>
                <mxCell id="dY5G0MWIAElWPyhCaf7V-12" style="edgeStyle=orthogonalEdgeStyle;html=1;entryX=1;entryY=0.5;entryDx=0;entryDy=0;fontFamily=Roboto;fontSource=https%3A%2F%2Ffonts.googleapis.com%2Fcss%3Ffamily%3DRoboto;endArrow=none;endFill=0;strokeColor=#6F7978;" parent="C338EUASnKbBIXxnKJzZ-1" source="2fnAf-8mrznU_V3PLvRW-1" target="xoWPv42Jw_Ec5Yf9Sz2_-1" edge="1">
                    <mxGeometry relative="1" as="geometry"/>
                </mxCell>
                <mxCell id="dY5G0MWIAElWPyhCaf7V-13" style="edgeStyle=orthogonalEdgeStyle;html=1;entryX=1;entryY=0.5;entryDx=0;entryDy=0;fontFamily=Roboto;fontSource=https%3A%2F%2Ffonts.googleapis.com%2Fcss%3Ffamily%3DRoboto;endArrow=none;endFill=0;strokeColor=#6F7978;" parent="C338EUASnKbBIXxnKJzZ-1" source="2fnAf-8mrznU_V3PLvRW-1" target="zOGHpzFeowUkN54CgMtl-7" edge="1">
                    <mxGeometry relative="1" as="geometry"/>
                </mxCell>
                <mxCell id="2fnAf-8mrznU_V3PLvRW-1" value="Google Maps" style="shape=umlActor;verticalLabelPosition=bottom;verticalAlign=top;html=1;fillColor=#FFCCCC;fontFamily=Fira Sans;fontSource=https%3A%2F%2Ffonts.googleapis.com%2Fcss%3Ffamily%3DFira%2BSans;" parent="C338EUASnKbBIXxnKJzZ-1" vertex="1">
                    <mxGeometry x="620" y="420" width="30" height="60" as="geometry"/>
                </mxCell>
                <mxCell id="HZX-do62R3i_OTAh2DCt-0" value="Contatta autore itinerario" style="ellipse;whiteSpace=wrap;html=1;fillColor=#CCE8E7;strokeColor=#006A6A;fontFamily=Fira Sans;fontSource=https%3A%2F%2Ffonts.googleapis.com%2Fcss%3Ffamily%3DFira%2BSans;" parent="C338EUASnKbBIXxnKJzZ-1" vertex="1">
                    <mxGeometry x="302.5" y="815" width="170" height="70" as="geometry"/>
                </mxCell>
            </root>
        </mxGraphModel>
    </diagram>
    <diagram id="lTys9XKKZDvqeg17OrR-" name="Interazione con un post">
        <mxGraphModel dx="1429" dy="553" grid="1" gridSize="10" guides="1" tooltips="1" connect="1" arrows="1" fold="1" page="1" pageScale="1" pageWidth="850" pageHeight="1100" math="0" shadow="0">
            <root>
                <mxCell id="-od6nIw5Y7ZX45nujaoe-0"/>
                <mxCell id="-od6nIw5Y7ZX45nujaoe-1" parent="-od6nIw5Y7ZX45nujaoe-0"/>
                <mxCell id="sqeVr-SyrVI41CZoPBQ_-0" value="Interazione con un post" style="shape=folder;fontStyle=1;spacingTop=-255;tabWidth=145;tabHeight=30;tabPosition=left;html=1;strokeColor=#81A1C1;fillColor=#B3C8E8;fontFamily=Fira Sans;fontSource=https%3A%2F%2Ffonts.googleapis.com%2Fcss%3Ffamily%3DFira%2BSans;spacingRight=100;" parent="-od6nIw5Y7ZX45nujaoe-1" vertex="1">
                    <mxGeometry x="265" y="220" width="240" height="280" as="geometry"/>
                </mxCell>
                <mxCell id="sqeVr-SyrVI41CZoPBQ_-1" value="Segnala post" style="ellipse;whiteSpace=wrap;html=1;fillColor=#CCE8E7;strokeColor=#006A6A;fontFamily=Fira Sans;fontSource=https%3A%2F%2Ffonts.googleapis.com%2Fcss%3Ffamily%3DFira%2BSans;" parent="-od6nIw5Y7ZX45nujaoe-1" vertex="1">
                    <mxGeometry x="300" y="340" width="170" height="70" as="geometry"/>
                </mxCell>
                <mxCell id="sqeVr-SyrVI41CZoPBQ_-3" value="Contatta autore post" style="ellipse;whiteSpace=wrap;html=1;fillColor=#CCE8E7;strokeColor=#006A6A;fontFamily=Fira Sans;fontSource=https%3A%2F%2Ffonts.googleapis.com%2Fcss%3Ffamily%3DFira%2BSans;" parent="-od6nIw5Y7ZX45nujaoe-1" vertex="1">
                    <mxGeometry x="300" y="420" width="170" height="70" as="geometry"/>
                </mxCell>
                <mxCell id="-ipw1VvJoXBgGLcdzLf8-0" value="Visualizza post" style="ellipse;whiteSpace=wrap;html=1;fillColor=#CCE8E7;strokeColor=#006A6A;fontFamily=Fira Sans;fontSource=https%3A%2F%2Ffonts.googleapis.com%2Fcss%3Ffamily%3DFira%2BSans;" parent="-od6nIw5Y7ZX45nujaoe-1" vertex="1">
                    <mxGeometry x="300" y="260" width="170" height="70" as="geometry"/>
                </mxCell>
                <mxCell id="UKqjOVKs4rOVD13P0vwv-1" style="edgeStyle=orthogonalEdgeStyle;html=1;entryX=0;entryY=0.5;entryDx=0;entryDy=0;fontFamily=Fira Sans;fontSource=https%3A%2F%2Ffonts.googleapis.com%2Fcss%3Ffamily%3DFira%2BSans;fontColor=#191C1C;endArrow=none;endFill=0;strokeColor=#6F7978;" parent="-od6nIw5Y7ZX45nujaoe-1" source="UKqjOVKs4rOVD13P0vwv-0" target="-ipw1VvJoXBgGLcdzLf8-0" edge="1">
                    <mxGeometry relative="1" as="geometry"/>
                </mxCell>
                <mxCell id="UKqjOVKs4rOVD13P0vwv-2" style="edgeStyle=orthogonalEdgeStyle;html=1;entryX=0;entryY=0.5;entryDx=0;entryDy=0;fontFamily=Fira Sans;fontSource=https%3A%2F%2Ffonts.googleapis.com%2Fcss%3Ffamily%3DFira%2BSans;fontColor=#191C1C;endArrow=none;endFill=0;strokeColor=#6F7978;" parent="-od6nIw5Y7ZX45nujaoe-1" source="UKqjOVKs4rOVD13P0vwv-0" target="sqeVr-SyrVI41CZoPBQ_-1" edge="1">
                    <mxGeometry relative="1" as="geometry"/>
                </mxCell>
                <mxCell id="UKqjOVKs4rOVD13P0vwv-3" style="edgeStyle=orthogonalEdgeStyle;html=1;entryX=0;entryY=0.5;entryDx=0;entryDy=0;fontFamily=Fira Sans;fontSource=https%3A%2F%2Ffonts.googleapis.com%2Fcss%3Ffamily%3DFira%2BSans;fontColor=#191C1C;endArrow=none;endFill=0;strokeColor=#6F7978;" parent="-od6nIw5Y7ZX45nujaoe-1" source="UKqjOVKs4rOVD13P0vwv-0" target="sqeVr-SyrVI41CZoPBQ_-3" edge="1">
                    <mxGeometry relative="1" as="geometry"/>
                </mxCell>
                <mxCell id="UKqjOVKs4rOVD13P0vwv-0" value="Utente registrato" style="shape=umlActor;verticalLabelPosition=bottom;verticalAlign=top;html=1;fillColor=#FFCCCC;fontFamily=Fira Sans;fontSource=https%3A%2F%2Ffonts.googleapis.com%2Fcss%3Ffamily%3DFira%2BSans;" parent="-od6nIw5Y7ZX45nujaoe-1" vertex="1">
                    <mxGeometry x="110" y="345" width="30" height="60" as="geometry"/>
                </mxCell>
            </root>
        </mxGraphModel>
    </diagram>
    <diagram id="ljcNCHIvoTIuV5J3r41A" name="Gestione profilo">
        <mxGraphModel dx="1429" dy="553" grid="1" gridSize="10" guides="1" tooltips="1" connect="1" arrows="1" fold="1" page="1" pageScale="1" pageWidth="850" pageHeight="1100" math="0" shadow="0">
            <root>
                <mxCell id="eGiqMJNB_t8XclPJ1ewD-0"/>
                <mxCell id="eGiqMJNB_t8XclPJ1ewD-1" parent="eGiqMJNB_t8XclPJ1ewD-0"/>
                <mxCell id="eGiqMJNB_t8XclPJ1ewD-2" value="&lt;font data-font-src=&quot;https://fonts.googleapis.com/css?family=Fira+Sans&quot; face=&quot;Fira Sans&quot;&gt;Gestione profilo&lt;/font&gt;" style="shape=folder;fontStyle=1;spacingTop=-820;tabWidth=101;tabHeight=30;tabPosition=left;html=1;direction=east;fillColor=#B3C8E8;strokeColor=#81A1C1;spacingLeft=0;spacingRight=140;" parent="eGiqMJNB_t8XclPJ1ewD-1" vertex="1">
                    <mxGeometry x="339" y="80" width="240" height="850" as="geometry"/>
                </mxCell>
                <mxCell id="eGiqMJNB_t8XclPJ1ewD-3" value="Aggiungi post" style="ellipse;whiteSpace=wrap;html=1;fillColor=#CCE8E7;strokeColor=#006A6A;fontFamily=Fira Sans;fontSource=https%3A%2F%2Ffonts.googleapis.com%2Fcss%3Ffamily%3DFira%2BSans;" parent="eGiqMJNB_t8XclPJ1ewD-1" vertex="1">
                    <mxGeometry x="374" y="290" width="170" height="70" as="geometry"/>
                </mxCell>
                <mxCell id="eGiqMJNB_t8XclPJ1ewD-4" value="Elimina post" style="ellipse;whiteSpace=wrap;html=1;fillColor=#CCE8E7;strokeColor=#006A6A;fontFamily=Fira Sans;fontSource=https%3A%2F%2Ffonts.googleapis.com%2Fcss%3Ffamily%3DFira%2BSans;" parent="eGiqMJNB_t8XclPJ1ewD-1" vertex="1">
                    <mxGeometry x="374" y="370" width="170" height="70" as="geometry"/>
                </mxCell>
                <mxCell id="eGiqMJNB_t8XclPJ1ewD-5" value="Aggiungi compilation" style="ellipse;whiteSpace=wrap;html=1;fillColor=#CCE8E7;strokeColor=#006A6A;fontFamily=Fira Sans;fontSource=https%3A%2F%2Ffonts.googleapis.com%2Fcss%3Ffamily%3DFira%2BSans;" parent="eGiqMJNB_t8XclPJ1ewD-1" vertex="1">
                    <mxGeometry x="374" y="530" width="170" height="70" as="geometry"/>
                </mxCell>
                <mxCell id="eGiqMJNB_t8XclPJ1ewD-6" value="Elimina compilation" style="ellipse;whiteSpace=wrap;html=1;fillColor=#CCE8E7;strokeColor=#006A6A;fontFamily=Fira Sans;fontSource=https%3A%2F%2Ffonts.googleapis.com%2Fcss%3Ffamily%3DFira%2BSans;" parent="eGiqMJNB_t8XclPJ1ewD-1" vertex="1">
                    <mxGeometry x="374" y="610" width="170" height="70" as="geometry"/>
                </mxCell>
                <mxCell id="eGiqMJNB_t8XclPJ1ewD-7" value="Modifica foto profilo" style="ellipse;whiteSpace=wrap;html=1;fillColor=#CCE8E7;strokeColor=#006A6A;fontFamily=Fira Sans;fontSource=https%3A%2F%2Ffonts.googleapis.com%2Fcss%3Ffamily%3DFira%2BSans;" parent="eGiqMJNB_t8XclPJ1ewD-1" vertex="1">
                    <mxGeometry x="374" y="210" width="170" height="70" as="geometry"/>
                </mxCell>
                <mxCell id="eGiqMJNB_t8XclPJ1ewD-8" value="Visualizza compilation" style="ellipse;whiteSpace=wrap;html=1;fillColor=#CCE8E7;strokeColor=#006A6A;fontFamily=Fira Sans;fontSource=https%3A%2F%2Ffonts.googleapis.com%2Fcss%3Ffamily%3DFira%2BSans;" parent="eGiqMJNB_t8XclPJ1ewD-1" vertex="1">
                    <mxGeometry x="374" y="450" width="170" height="70" as="geometry"/>
                </mxCell>
                <mxCell id="XrmHwuFWhV1IJxgCvK87-0" value="Elimina itinerario da compilation" style="ellipse;whiteSpace=wrap;html=1;fillColor=#CCE8E7;strokeColor=#006A6A;fontFamily=Fira Sans;fontSource=https%3A%2F%2Ffonts.googleapis.com%2Fcss%3Ffamily%3DFira%2BSans;" parent="eGiqMJNB_t8XclPJ1ewD-1" vertex="1">
                    <mxGeometry x="374" y="690" width="170" height="70" as="geometry"/>
                </mxCell>
                <mxCell id="18WCDsnbuguUlf2W9zgz-0" value="Visualizza profilo personale" style="ellipse;whiteSpace=wrap;html=1;fillColor=#CCE8E7;strokeColor=#006A6A;fontFamily=Fira Sans;fontSource=https%3A%2F%2Ffonts.googleapis.com%2Fcss%3Ffamily%3DFira%2BSans;" parent="eGiqMJNB_t8XclPJ1ewD-1" vertex="1">
                    <mxGeometry x="374" y="130" width="170" height="70" as="geometry"/>
                </mxCell>
                <mxCell id="CQFWI6z-2guNO9frtrrk-0" value="Visualizza itinerari inseriti" style="ellipse;whiteSpace=wrap;html=1;fillColor=#CCE8E7;strokeColor=#006A6A;fontFamily=Fira Sans;fontSource=https%3A%2F%2Ffonts.googleapis.com%2Fcss%3Ffamily%3DFira%2BSans;" parent="eGiqMJNB_t8XclPJ1ewD-1" vertex="1">
                    <mxGeometry x="374" y="770" width="170" height="70" as="geometry"/>
                </mxCell>
                <mxCell id="XIPHTUcSQlaK3CepgmlU-0" value="Elimina itinerari inseriti" style="ellipse;whiteSpace=wrap;html=1;fillColor=#CCE8E7;strokeColor=#006A6A;fontFamily=Fira Sans;fontSource=https%3A%2F%2Ffonts.googleapis.com%2Fcss%3Ffamily%3DFira%2BSans;" parent="eGiqMJNB_t8XclPJ1ewD-1" vertex="1">
                    <mxGeometry x="374" y="850" width="170" height="70" as="geometry"/>
                </mxCell>
                <mxCell id="YbLeje-0JzQswItLggrk-1" style="edgeStyle=orthogonalEdgeStyle;html=1;entryX=0;entryY=0.5;entryDx=0;entryDy=0;fontFamily=Fira Sans;fontSource=https%3A%2F%2Ffonts.googleapis.com%2Fcss%3Ffamily%3DFira%2BSans;fontColor=#191C1C;endArrow=none;endFill=0;strokeColor=#6F7978;" parent="eGiqMJNB_t8XclPJ1ewD-1" source="YbLeje-0JzQswItLggrk-0" target="18WCDsnbuguUlf2W9zgz-0" edge="1">
                    <mxGeometry relative="1" as="geometry"/>
                </mxCell>
                <mxCell id="YbLeje-0JzQswItLggrk-2" style="edgeStyle=orthogonalEdgeStyle;html=1;entryX=0;entryY=0.5;entryDx=0;entryDy=0;fontFamily=Fira Sans;fontSource=https%3A%2F%2Ffonts.googleapis.com%2Fcss%3Ffamily%3DFira%2BSans;fontColor=#191C1C;endArrow=none;endFill=0;strokeColor=#6F7978;" parent="eGiqMJNB_t8XclPJ1ewD-1" source="YbLeje-0JzQswItLggrk-0" target="eGiqMJNB_t8XclPJ1ewD-7" edge="1">
                    <mxGeometry relative="1" as="geometry"/>
                </mxCell>
                <mxCell id="YbLeje-0JzQswItLggrk-3" style="edgeStyle=orthogonalEdgeStyle;html=1;entryX=0;entryY=0.5;entryDx=0;entryDy=0;fontFamily=Fira Sans;fontSource=https%3A%2F%2Ffonts.googleapis.com%2Fcss%3Ffamily%3DFira%2BSans;fontColor=#191C1C;endArrow=none;endFill=0;strokeColor=#6F7978;" parent="eGiqMJNB_t8XclPJ1ewD-1" source="YbLeje-0JzQswItLggrk-0" target="eGiqMJNB_t8XclPJ1ewD-3" edge="1">
                    <mxGeometry relative="1" as="geometry"/>
                </mxCell>
                <mxCell id="YbLeje-0JzQswItLggrk-4" style="edgeStyle=orthogonalEdgeStyle;html=1;entryX=0;entryY=0.5;entryDx=0;entryDy=0;fontFamily=Fira Sans;fontSource=https%3A%2F%2Ffonts.googleapis.com%2Fcss%3Ffamily%3DFira%2BSans;fontColor=#191C1C;endArrow=none;endFill=0;strokeColor=#6F7978;" parent="eGiqMJNB_t8XclPJ1ewD-1" source="YbLeje-0JzQswItLggrk-0" target="eGiqMJNB_t8XclPJ1ewD-4" edge="1">
                    <mxGeometry relative="1" as="geometry"/>
                </mxCell>
                <mxCell id="YbLeje-0JzQswItLggrk-5" style="edgeStyle=orthogonalEdgeStyle;html=1;entryX=0;entryY=0.5;entryDx=0;entryDy=0;fontFamily=Fira Sans;fontSource=https%3A%2F%2Ffonts.googleapis.com%2Fcss%3Ffamily%3DFira%2BSans;fontColor=#191C1C;endArrow=none;endFill=0;strokeColor=#6F7978;" parent="eGiqMJNB_t8XclPJ1ewD-1" source="YbLeje-0JzQswItLggrk-0" target="eGiqMJNB_t8XclPJ1ewD-8" edge="1">
                    <mxGeometry relative="1" as="geometry"/>
                </mxCell>
                <mxCell id="YbLeje-0JzQswItLggrk-6" style="edgeStyle=orthogonalEdgeStyle;html=1;entryX=0;entryY=0.5;entryDx=0;entryDy=0;fontFamily=Fira Sans;fontSource=https%3A%2F%2Ffonts.googleapis.com%2Fcss%3Ffamily%3DFira%2BSans;fontColor=#191C1C;endArrow=none;endFill=0;strokeColor=#6F7978;" parent="eGiqMJNB_t8XclPJ1ewD-1" source="YbLeje-0JzQswItLggrk-0" target="eGiqMJNB_t8XclPJ1ewD-5" edge="1">
                    <mxGeometry relative="1" as="geometry"/>
                </mxCell>
                <mxCell id="YbLeje-0JzQswItLggrk-7" style="edgeStyle=orthogonalEdgeStyle;html=1;entryX=0;entryY=0.5;entryDx=0;entryDy=0;fontFamily=Fira Sans;fontSource=https%3A%2F%2Ffonts.googleapis.com%2Fcss%3Ffamily%3DFira%2BSans;fontColor=#191C1C;endArrow=none;endFill=0;strokeColor=#6F7978;" parent="eGiqMJNB_t8XclPJ1ewD-1" source="YbLeje-0JzQswItLggrk-0" target="eGiqMJNB_t8XclPJ1ewD-6" edge="1">
                    <mxGeometry relative="1" as="geometry"/>
                </mxCell>
                <mxCell id="YbLeje-0JzQswItLggrk-8" style="edgeStyle=orthogonalEdgeStyle;html=1;entryX=0;entryY=0.5;entryDx=0;entryDy=0;fontFamily=Fira Sans;fontSource=https%3A%2F%2Ffonts.googleapis.com%2Fcss%3Ffamily%3DFira%2BSans;fontColor=#191C1C;endArrow=none;endFill=0;strokeColor=#6F7978;" parent="eGiqMJNB_t8XclPJ1ewD-1" source="YbLeje-0JzQswItLggrk-0" target="XrmHwuFWhV1IJxgCvK87-0" edge="1">
                    <mxGeometry relative="1" as="geometry"/>
                </mxCell>
                <mxCell id="YbLeje-0JzQswItLggrk-9" style="edgeStyle=orthogonalEdgeStyle;html=1;entryX=0;entryY=0.5;entryDx=0;entryDy=0;fontFamily=Fira Sans;fontSource=https%3A%2F%2Ffonts.googleapis.com%2Fcss%3Ffamily%3DFira%2BSans;fontColor=#191C1C;endArrow=none;endFill=0;strokeColor=#6F7978;" parent="eGiqMJNB_t8XclPJ1ewD-1" source="YbLeje-0JzQswItLggrk-0" target="CQFWI6z-2guNO9frtrrk-0" edge="1">
                    <mxGeometry relative="1" as="geometry"/>
                </mxCell>
                <mxCell id="YbLeje-0JzQswItLggrk-10" style="edgeStyle=orthogonalEdgeStyle;html=1;entryX=0;entryY=0.5;entryDx=0;entryDy=0;fontFamily=Fira Sans;fontSource=https%3A%2F%2Ffonts.googleapis.com%2Fcss%3Ffamily%3DFira%2BSans;fontColor=#191C1C;endArrow=none;endFill=0;strokeColor=#6F7978;" parent="eGiqMJNB_t8XclPJ1ewD-1" source="YbLeje-0JzQswItLggrk-0" target="XIPHTUcSQlaK3CepgmlU-0" edge="1">
                    <mxGeometry relative="1" as="geometry"/>
                </mxCell>
                <mxCell id="YbLeje-0JzQswItLggrk-0" value="Utente registrato" style="shape=umlActor;verticalLabelPosition=bottom;verticalAlign=top;html=1;fillColor=#FFCCCC;fontFamily=Fira Sans;fontSource=https%3A%2F%2Ffonts.googleapis.com%2Fcss%3Ffamily%3DFira%2BSans;" parent="eGiqMJNB_t8XclPJ1ewD-1" vertex="1">
                    <mxGeometry x="150" y="455" width="30" height="60" as="geometry"/>
                </mxCell>
            </root>
        </mxGraphModel>
    </diagram>
</mxfile>